<mxfile host="app.diagrams.net" agent="Mozilla/5.0 (Windows NT 10.0; Win64; x64) AppleWebKit/537.36 (KHTML, like Gecko) Chrome/134.0.0.0 Safari/537.36 Edg/134.0.0.0" version="26.1.0">
  <diagram name="第 1 页" id="KF7_bSiwcDdXmaUGLSkA">
    <mxGraphModel dx="612" dy="847" grid="1" gridSize="10" guides="1" tooltips="1" connect="1" arrows="1" fold="1" page="1" pageScale="1" pageWidth="827" pageHeight="1169" math="0" shadow="0">
      <root>
        <mxCell id="0" />
        <mxCell id="1" parent="0" />
        <mxCell id="nuDE1Cmq6oBO7aZp8r9I-1" value="Activity launched" style="ellipse;whiteSpace=wrap;html=1;" vertex="1" parent="1">
          <mxGeometry x="240" y="90" width="140" height="60" as="geometry" />
        </mxCell>
        <mxCell id="nuDE1Cmq6oBO7aZp8r9I-2" value="Activity running" style="ellipse;whiteSpace=wrap;html=1;" vertex="1" parent="1">
          <mxGeometry x="240" y="430" width="140" height="60" as="geometry" />
        </mxCell>
        <mxCell id="nuDE1Cmq6oBO7aZp8r9I-3" value="Activity destroyed" style="ellipse;whiteSpace=wrap;html=1;" vertex="1" parent="1">
          <mxGeometry x="240" y="770" width="140" height="60" as="geometry" />
        </mxCell>
        <mxCell id="nuDE1Cmq6oBO7aZp8r9I-4" value="onCreate()" style="text;html=1;align=center;verticalAlign=middle;whiteSpace=wrap;rounded=0;" vertex="1" parent="1">
          <mxGeometry x="280" y="190" width="60" height="30" as="geometry" />
        </mxCell>
        <mxCell id="nuDE1Cmq6oBO7aZp8r9I-5" value="onStart()" style="text;html=1;align=center;verticalAlign=middle;whiteSpace=wrap;rounded=0;" vertex="1" parent="1">
          <mxGeometry x="280" y="270" width="60" height="30" as="geometry" />
        </mxCell>
        <mxCell id="nuDE1Cmq6oBO7aZp8r9I-6" value="onStop()" style="text;html=1;align=center;verticalAlign=middle;whiteSpace=wrap;rounded=0;" vertex="1" parent="1">
          <mxGeometry x="280" y="555" width="60" height="30" as="geometry" />
        </mxCell>
        <mxCell id="nuDE1Cmq6oBO7aZp8r9I-7" value="onDestroy()" style="text;html=1;align=center;verticalAlign=middle;whiteSpace=wrap;rounded=0;" vertex="1" parent="1">
          <mxGeometry x="280" y="690" width="60" height="30" as="geometry" />
        </mxCell>
        <mxCell id="nuDE1Cmq6oBO7aZp8r9I-8" value="onRestart()" style="text;html=1;align=center;verticalAlign=middle;whiteSpace=wrap;rounded=0;" vertex="1" parent="1">
          <mxGeometry x="450" y="445" width="60" height="30" as="geometry" />
        </mxCell>
        <mxCell id="nuDE1Cmq6oBO7aZp8r9I-9" value="" style="endArrow=classic;html=1;rounded=0;exitX=0.5;exitY=1;exitDx=0;exitDy=0;entryX=0.5;entryY=0;entryDx=0;entryDy=0;" edge="1" parent="1" source="nuDE1Cmq6oBO7aZp8r9I-1" target="nuDE1Cmq6oBO7aZp8r9I-4">
          <mxGeometry width="50" height="50" relative="1" as="geometry">
            <mxPoint x="300" y="400" as="sourcePoint" />
            <mxPoint x="350" y="350" as="targetPoint" />
          </mxGeometry>
        </mxCell>
        <mxCell id="nuDE1Cmq6oBO7aZp8r9I-10" value="" style="endArrow=classic;html=1;rounded=0;entryX=1.133;entryY=0.527;entryDx=0;entryDy=0;entryPerimeter=0;" edge="1" parent="1" target="nuDE1Cmq6oBO7aZp8r9I-5">
          <mxGeometry width="50" height="50" relative="1" as="geometry">
            <mxPoint x="480" y="286" as="sourcePoint" />
            <mxPoint x="540" y="345" as="targetPoint" />
          </mxGeometry>
        </mxCell>
        <mxCell id="nuDE1Cmq6oBO7aZp8r9I-11" value="" style="endArrow=classic;html=1;rounded=0;exitX=0.5;exitY=1;exitDx=0;exitDy=0;entryX=0.5;entryY=0;entryDx=0;entryDy=0;" edge="1" parent="1" source="nuDE1Cmq6oBO7aZp8r9I-7">
          <mxGeometry width="50" height="50" relative="1" as="geometry">
            <mxPoint x="309.5" y="730" as="sourcePoint" />
            <mxPoint x="309.5" y="770" as="targetPoint" />
          </mxGeometry>
        </mxCell>
        <mxCell id="nuDE1Cmq6oBO7aZp8r9I-12" value="" style="endArrow=classic;html=1;rounded=0;exitX=0.5;exitY=1;exitDx=0;exitDy=0;entryX=0.5;entryY=0;entryDx=0;entryDy=0;" edge="1" parent="1">
          <mxGeometry width="50" height="50" relative="1" as="geometry">
            <mxPoint x="309.5" y="655" as="sourcePoint" />
            <mxPoint x="309.5" y="695" as="targetPoint" />
          </mxGeometry>
        </mxCell>
        <mxCell id="nuDE1Cmq6oBO7aZp8r9I-13" value="" style="endArrow=classic;html=1;rounded=0;exitX=0.5;exitY=1;exitDx=0;exitDy=0;entryX=0.5;entryY=0;entryDx=0;entryDy=0;" edge="1" parent="1" target="nuDE1Cmq6oBO7aZp8r9I-6">
          <mxGeometry width="50" height="50" relative="1" as="geometry">
            <mxPoint x="309.5" y="490" as="sourcePoint" />
            <mxPoint x="309.5" y="530" as="targetPoint" />
          </mxGeometry>
        </mxCell>
        <mxCell id="nuDE1Cmq6oBO7aZp8r9I-14" value="" style="endArrow=classic;html=1;rounded=0;entryX=0.5;entryY=0;entryDx=0;entryDy=0;exitX=0.5;exitY=1;exitDx=0;exitDy=0;" edge="1" parent="1" source="nuDE1Cmq6oBO7aZp8r9I-20">
          <mxGeometry width="50" height="50" relative="1" as="geometry">
            <mxPoint x="310" y="390" as="sourcePoint" />
            <mxPoint x="309.5" y="430" as="targetPoint" />
          </mxGeometry>
        </mxCell>
        <mxCell id="nuDE1Cmq6oBO7aZp8r9I-15" value="" style="endArrow=classic;html=1;rounded=0;exitX=0.5;exitY=1;exitDx=0;exitDy=0;entryX=0.5;entryY=0;entryDx=0;entryDy=0;" edge="1" parent="1" source="nuDE1Cmq6oBO7aZp8r9I-4">
          <mxGeometry width="50" height="50" relative="1" as="geometry">
            <mxPoint x="309.5" y="230" as="sourcePoint" />
            <mxPoint x="309.5" y="270" as="targetPoint" />
          </mxGeometry>
        </mxCell>
        <mxCell id="nuDE1Cmq6oBO7aZp8r9I-16" value="" style="endArrow=classic;html=1;rounded=0;entryX=0.5;entryY=1;entryDx=0;entryDy=0;" edge="1" parent="1" target="nuDE1Cmq6oBO7aZp8r9I-8">
          <mxGeometry width="50" height="50" relative="1" as="geometry">
            <mxPoint x="480" y="640" as="sourcePoint" />
            <mxPoint x="520" y="480" as="targetPoint" />
          </mxGeometry>
        </mxCell>
        <mxCell id="nuDE1Cmq6oBO7aZp8r9I-17" value="" style="endArrow=none;html=1;rounded=0;exitX=0.5;exitY=0;exitDx=0;exitDy=0;" edge="1" parent="1" source="nuDE1Cmq6oBO7aZp8r9I-8">
          <mxGeometry width="50" height="50" relative="1" as="geometry">
            <mxPoint x="380" y="300" as="sourcePoint" />
            <mxPoint x="480" y="290" as="targetPoint" />
          </mxGeometry>
        </mxCell>
        <mxCell id="nuDE1Cmq6oBO7aZp8r9I-18" value="" style="endArrow=none;html=1;rounded=0;" edge="1" parent="1">
          <mxGeometry width="50" height="50" relative="1" as="geometry">
            <mxPoint x="340" y="640" as="sourcePoint" />
            <mxPoint x="480" y="640" as="targetPoint" />
          </mxGeometry>
        </mxCell>
        <mxCell id="nuDE1Cmq6oBO7aZp8r9I-19" value="onStop()" style="text;html=1;align=center;verticalAlign=middle;whiteSpace=wrap;rounded=0;" vertex="1" parent="1">
          <mxGeometry x="280" y="620" width="60" height="30" as="geometry" />
        </mxCell>
        <mxCell id="nuDE1Cmq6oBO7aZp8r9I-20" value="onStart()" style="text;html=1;align=center;verticalAlign=middle;whiteSpace=wrap;rounded=0;" vertex="1" parent="1">
          <mxGeometry x="280" y="330" width="60" height="30" as="geometry" />
        </mxCell>
        <mxCell id="nuDE1Cmq6oBO7aZp8r9I-21" value="" style="endArrow=classic;html=1;rounded=0;entryX=0.5;entryY=0;entryDx=0;entryDy=0;" edge="1" parent="1">
          <mxGeometry width="50" height="50" relative="1" as="geometry">
            <mxPoint x="310.07" y="300" as="sourcePoint" />
            <mxPoint x="309.57" y="340" as="targetPoint" />
          </mxGeometry>
        </mxCell>
        <mxCell id="nuDE1Cmq6oBO7aZp8r9I-23" value="" style="endArrow=classic;html=1;rounded=0;exitX=0.5;exitY=1;exitDx=0;exitDy=0;entryX=0.5;entryY=0;entryDx=0;entryDy=0;" edge="1" parent="1">
          <mxGeometry width="50" height="50" relative="1" as="geometry">
            <mxPoint x="309.57" y="580" as="sourcePoint" />
            <mxPoint x="309.57" y="620" as="targetPoint" />
          </mxGeometry>
        </mxCell>
        <mxCell id="nuDE1Cmq6oBO7aZp8r9I-24" value="" style="endArrow=none;html=1;rounded=0;entryX=0;entryY=0.5;entryDx=0;entryDy=0;" edge="1" parent="1" target="nuDE1Cmq6oBO7aZp8r9I-6">
          <mxGeometry width="50" height="50" relative="1" as="geometry">
            <mxPoint x="170" y="570" as="sourcePoint" />
            <mxPoint x="260" y="580" as="targetPoint" />
          </mxGeometry>
        </mxCell>
        <mxCell id="nuDE1Cmq6oBO7aZp8r9I-25" value="" style="endArrow=none;html=1;rounded=0;" edge="1" parent="1">
          <mxGeometry width="50" height="50" relative="1" as="geometry">
            <mxPoint x="170" y="570" as="sourcePoint" />
            <mxPoint x="170" y="350" as="targetPoint" />
          </mxGeometry>
        </mxCell>
        <mxCell id="nuDE1Cmq6oBO7aZp8r9I-26" value="" style="endArrow=classic;html=1;rounded=0;entryX=0;entryY=0.5;entryDx=0;entryDy=0;" edge="1" parent="1" target="nuDE1Cmq6oBO7aZp8r9I-20">
          <mxGeometry width="50" height="50" relative="1" as="geometry">
            <mxPoint x="170" y="345" as="sourcePoint" />
            <mxPoint x="220" y="290" as="targetPoint" />
          </mxGeometry>
        </mxCell>
      </root>
    </mxGraphModel>
  </diagram>
</mxfile>
